<svg xmlns="http://www.w3.org/2000/svg" width="69" height="69" viewBox="0 0 69 69">
  <g id="Groupe_707" data-name="Groupe 707" transform="translate(-1308 -2113)">
    <rect id="Rectangle_369" data-name="Rectangle 369" width="69" height="69" rx="15" transform="translate(1308 2113)" fill="#1c6586"/>
    <g id="doctor" transform="translate(1320 2125)">
      <path id="Tracé_364" data-name="Tracé 364" d="M42.088,9.418H33.54a.665.665,0,0,0,0,1.33h8.548a2,2,0,0,1,2,2V35.331a2,2,0,0,1-2,2H3.326a2,2,0,0,1-2-2V12.744a2,2,0,0,1,2-2H14.313v.67c0,.222.009.443.026.661H3.592a.932.932,0,0,0-.931.931v16.5a.665.665,0,1,0,1.33,0V13.41H14.549a8.5,8.5,0,0,0,4.2,5.475v1.49a.812.812,0,0,1-.554.77L11.776,23.3A5.093,5.093,0,0,0,8.3,28.136v6.53H3.991V32.614a.665.665,0,0,0-1.33,0v2.451A.932.932,0,0,0,3.592,36H41.822a.932.932,0,0,0,.931-.931V13.01a.932.932,0,0,0-.931-.931H31.081q.019-.287.02-.577V4.021A4.025,4.025,0,0,0,27.08,0H18.334a4.025,4.025,0,0,0-4.021,4.021v5.4H3.326A3.33,3.33,0,0,0,0,12.744V35.331a3.33,3.33,0,0,0,3.326,3.326H19.449v2.766h-.84a3.064,3.064,0,0,0-3.06,3.06.932.932,0,0,0,.931.931H28.934a.932.932,0,0,0,.931-.931,3.064,3.064,0,0,0-3.06-3.06h-.84V38.657H42.088a3.33,3.33,0,0,0,3.326-3.326V12.744A3.33,3.33,0,0,0,42.088,9.418Zm-6.3,25.247H9.631v-6.53a3.764,3.764,0,0,1,2.569-3.57l1.5-.505a6.884,6.884,0,0,0,.08,2.816,3.4,3.4,0,0,0-2.531,3.28v2.189a1.125,1.125,0,0,0,1.123,1.123H13a.665.665,0,0,0,0-1.33h-.414V30.156A2.063,2.063,0,0,1,14.642,28.1h0A2.063,2.063,0,0,1,16.7,30.156v1.982H16.29a.665.665,0,0,0,0,1.33h.622a1.125,1.125,0,0,0,1.123-1.123V30.156a3.4,3.4,0,0,0-2.9-3.355,5.584,5.584,0,0,1,.055-3.243l2.986-1L21.935,26.3a1.2,1.2,0,0,0,1.693,0l3.717-3.713,3.266,1.1a5.3,5.3,0,0,1,.034,3.713,3.053,3.053,0,1,0,1.367.1,6.563,6.563,0,0,0,.135-3.3l1.07.36a3.764,3.764,0,0,1,2.569,3.57ZM26.065,21.989,22.781,25.27l-3.356-3.353a2.139,2.139,0,0,0,.657-1.542v-.913a8.276,8.276,0,0,0,2.6.426h.03a8.419,8.419,0,0,0,2.625-.416v.9a2.14,2.14,0,0,0,.733,1.614ZM31.107,28.7h0a1.72,1.72,0,1,1-1.723,1.72A1.724,1.724,0,0,1,31.109,28.7ZM30.884,13.41H41.423V34.665H37.114v-6.53A5.093,5.093,0,0,0,33.638,23.3l-6.421-2.159a.812.812,0,0,1-.554-.77V18.9a8.422,8.422,0,0,0,1.972-1.464,8.327,8.327,0,0,0,2.249-4.03ZM15.643,4.021a2.693,2.693,0,0,1,2.69-2.69H27.08a2.693,2.693,0,0,1,2.69,2.69V8.008a6.349,6.349,0,0,1-2.364-.754,6.312,6.312,0,0,1-1.935-1.66,1.072,1.072,0,0,0-1.434-.238,16.17,16.17,0,0,1-2.891,1.521,16.248,16.248,0,0,1-5.5,1.16Zm0,5.349a17.575,17.575,0,0,0,6-1.258A17.5,17.5,0,0,0,24.571,6.6a7.627,7.627,0,0,0,2.191,1.821,7.7,7.7,0,0,0,3.009.928V11.5a7.074,7.074,0,0,1-4.014,6.368.65.65,0,0,0-.085.04,7.036,7.036,0,0,1-2.989.647h0a7.115,7.115,0,0,1-7.039-7.139c0-.009,0-2.041,0-2.048ZM20.78,38.657h3.855v2.766H20.78Zm6.025,4.1a1.733,1.733,0,0,1,1.683,1.33H16.926a1.732,1.732,0,0,1,1.683-1.33Z" fill="#fff"/>
    </g>
  </g>
</svg>
