<svg xmlns="http://www.w3.org/2000/svg" width="69" height="69" viewBox="0 0 69 69">
  <g id="Groupe_705" data-name="Groupe 705" transform="translate(-119 -2113)">
    <rect id="Rectangle_360" data-name="Rectangle 360" width="69" height="69" rx="15" transform="translate(119 2113)" fill="#1c6586"/>
    <g id="purchase" transform="translate(128 2123.996)">
      <path id="Tracé_365" data-name="Tracé 365" d="M53.637,255.728a23.215,23.215,0,0,1-22.553-17.2.791.791,0,0,1,.578-.963.809.809,0,0,1,.978.57,21.723,21.723,0,0,0,42.678-5.342.8.8,0,0,1,1.606,0A23.139,23.139,0,0,1,53.637,255.728Zm0,0" transform="translate(-27.987 -208.425)" fill="#fff"/>
      <path id="Tracé_366" data-name="Tracé 366" d="M24.807,23.728a.8.8,0,0,1-.8-.791A23.332,23.332,0,0,1,69.843,17.2a.791.791,0,0,1-.578.963.807.807,0,0,1-.978-.57A21.722,21.722,0,0,0,25.61,22.938.8.8,0,0,1,24.807,23.728Zm0,0" transform="translate(-21.63 0)" fill="#fff"/>
      <path id="Tracé_367" data-name="Tracé 367" d="M3.165,203.955a.787.787,0,0,1-.559-.232L.233,201.351a.79.79,0,0,1,1.118-1.118l2.372,2.372a.791.791,0,0,1-.559,1.35Zm0,0" transform="translate(0 -179.93)" fill="#fff"/>
      <path id="Tracé_368" data-name="Tracé 368" d="M24.792,203.955a.791.791,0,0,1-.559-1.35l2.372-2.372a.79.79,0,1,1,1.118,1.118l-2.372,2.372A.787.787,0,0,1,24.792,203.955Zm0,0" transform="translate(-21.628 -179.93)" fill="#fff"/>
      <path id="Tracé_369" data-name="Tracé 369" d="M475.165,227.955a.787.787,0,0,1-.559-.232l-2.372-2.372a.79.79,0,0,1,1.118-1.118l2.372,2.372a.791.791,0,0,1-.559,1.35Zm0,0" transform="translate(-424.647 -201.522)" fill="#fff"/>
      <path id="Tracé_370" data-name="Tracé 370" d="M448.792,227.955a.791.791,0,0,1-.559-1.35l2.372-2.372a.79.79,0,0,1,1.118,1.118l-2.372,2.372A.787.787,0,0,1,448.792,227.955Zm0,0" transform="translate(-403.019 -201.522)" fill="#fff"/>
      <path id="Tracé_371" data-name="Tracé 371" d="M104.775,221.634a.79.79,0,0,1-.791-.791v-20.13a.791.791,0,0,1,1.582,0v20.13A.79.79,0,0,1,104.775,221.634Zm0,0" transform="translate(-93.559 -179.515)" fill="#fff"/>
      <path id="Tracé_372" data-name="Tracé 372" d="M392.81,221.635a.79.79,0,0,1-.791-.791V200.713a.791.791,0,1,1,1.582,0v20.132A.79.79,0,0,1,392.81,221.635Zm0,0" transform="translate(-352.717 -179.515)" fill="#fff"/>
      <path id="Tracé_373" data-name="Tracé 373" d="M133.925,201.5H104.793a.791.791,0,1,1,0-1.582h29.131a.791.791,0,1,1,0,1.582Zm0,0" transform="translate(-93.704 -179.875)" fill="#fff"/>
      <path id="Tracé_374" data-name="Tracé 374" d="M104.771,165.44a.792.792,0,0,1-.678-1.2l2.372-3.956a.791.791,0,0,1,1.357.814l-2.372,3.956A.789.789,0,0,1,104.771,165.44Zm0,0" transform="translate(-93.548 -143.846)" fill="#fff"/>
      <path id="Tracé_375" data-name="Tracé 375" d="M371.184,165.447a.789.789,0,0,1-.679-.383l-2.372-3.956a.791.791,0,0,1,1.357-.814l2.372,3.956a.791.791,0,0,1-.678,1.2Zm0,0" transform="translate(-331.098 -143.853)" fill="#fff"/>
      <path id="Tracé_376" data-name="Tracé 376" d="M153.177,161.488H128.8a.791.791,0,1,1,0-1.582h24.38a.791.791,0,1,1,0,1.582Zm0,0" transform="translate(-115.332 -143.871)" fill="#fff"/>
      <path id="Tracé_377" data-name="Tracé 377" d="M216.778,165.429a.744.744,0,0,1-.156-.016.79.79,0,0,1-.62-.931l.791-3.956a.791.791,0,0,1,1.551.311l-.791,3.956A.791.791,0,0,1,216.778,165.429Zm0,0" transform="translate(-194.327 -143.835)" fill="#fff"/>
      <path id="Tracé_378" data-name="Tracé 378" d="M273.585,165.431a.79.79,0,0,1-.774-.636l-.791-3.956a.791.791,0,0,1,1.551-.311l.791,3.956a.791.791,0,0,1-.62.931A.757.757,0,0,1,273.585,165.431Zm0,0" transform="translate(-244.728 -143.837)" fill="#fff"/>
      <path id="Tracé_379" data-name="Tracé 379" d="M216.775,206.248a.79.79,0,0,1-.791-.791v-4.745a.791.791,0,1,1,1.582,0v4.745A.79.79,0,0,1,216.775,206.248Zm0,0" transform="translate(-194.33 -179.842)" fill="#fff"/>
      <path id="Tracé_380" data-name="Tracé 380" d="M280.795,206.248a.79.79,0,0,1-.791-.791v-4.745a.791.791,0,1,1,1.582,0v4.745A.79.79,0,0,1,280.795,206.248Zm0,0" transform="translate(-251.932 -179.842)" fill="#fff"/>
      <path id="Tracé_381" data-name="Tracé 381" d="M251.957,242.288a.8.8,0,0,1-.192-.024l-3.163-.791a.791.791,0,0,1,.383-1.535l3.163.791a.791.791,0,0,1-.19,1.558Zm0,0" transform="translate(-223.114 -215.852)" fill="#fff"/>
      <path id="Tracé_382" data-name="Tracé 382" d="M216.772,242.285a.791.791,0,0,1-.19-1.558l3.165-.791a.791.791,0,0,1,.383,1.535l-3.165.791A.8.8,0,0,1,216.772,242.285Zm0,0" transform="translate(-194.307 -215.849)" fill="#fff"/>
      <path id="Tracé_383" data-name="Tracé 383" d="M191,345.519H176.76a.791.791,0,0,1,0-1.582H191a.791.791,0,1,1,0,1.582Zm0,0" transform="translate(-158.225 -309.452)" fill="#fff"/>
      <path id="Tracé_384" data-name="Tracé 384" d="M191,313.586H176.76a.791.791,0,0,1,0-1.582H191a.791.791,0,0,1,0,1.582Zm0,0" transform="translate(-158.225 -280.72)" fill="#fff"/>
      <path id="Tracé_385" data-name="Tracé 385" d="M223.105,377.535h-6.33a.791.791,0,1,1,0-1.582h6.33a.791.791,0,1,1,0,1.582Zm0,0" transform="translate(-194.285 -338.258)" fill="#fff"/>
    </g>
  </g>
</svg>
