<svg xmlns="http://www.w3.org/2000/svg" width="69" height="69" viewBox="0 0 69 69">
  <g id="Groupe_706" data-name="Groupe 706" transform="translate(-739 -2113)">
    <rect id="Rectangle_368" data-name="Rectangle 368" width="69" height="69" rx="15" transform="translate(739 2113)" fill="#1c6586"/>
    <g id="heart" transform="translate(750 2125.5)">
      <path id="Tracé_360" data-name="Tracé 360" d="M40.88,262.6a.88.88,0,1,0,.88.88A.88.88,0,0,0,40.88,262.6Zm0,0" transform="translate(-36.481 -238.121)" fill="#fff"/>
      <path id="Tracé_361" data-name="Tracé 361" d="M41.976,229.168l-8.61,2.852a3.391,3.391,0,0,0,.06-.624,3.592,3.592,0,0,0-3.653-3.519H23.858a.941.941,0,0,1-.448-.113l-4.825-2.614a6.589,6.589,0,0,0-3.135-.792H8.975A2.739,2.739,0,0,0,6.393,222.6H.913a.9.9,0,0,0-.913.88v15.837a.9.9,0,0,0,.913.88h5.48A2.744,2.744,0,0,0,8.95,238.5a8.573,8.573,0,0,1,2.982.853l4.776,2.761a12.033,12.033,0,0,0,10.808.594l17.046-7.231a3.363,3.363,0,0,0,1.741-4.843A3.609,3.609,0,0,0,41.976,229.168Zm-34.67,8.391a.9.9,0,0,1-.913.876H1.827V224.357H6.393a.9.9,0,0,1,.913.88Zm36.562-3.708-.029.011L26.764,241.1a10.145,10.145,0,0,1-9.117-.5l-4.777-2.761a10.352,10.352,0,0,0-3.738-1.1V226.117H15.45a4.7,4.7,0,0,1,2.239.565l4.825,2.614a2.826,2.826,0,0,0,1.344.34h5.914a1.761,1.761,0,1,1,0,3.519H20.489a.88.88,0,1,0,0,1.759h9.284a3.757,3.757,0,0,0,1.712-.412l11.1-3.677a1.768,1.768,0,0,1,2.107.645A1.63,1.63,0,0,1,43.868,233.85Zm0,0" transform="translate(0 -201.011)" fill="#fff"/>
      <path id="Tracé_362" data-name="Tracé 362" d="M171.5,21.841a.881.881,0,0,0,1.153,0c7.179-6.221,11.619-9.37,11.619-14.263,0-3.871-2.74-7.078-6.59-7.078a6.515,6.515,0,0,0-5.711,3.644,6.4,6.4,0,0,0-11.987,1.221.88.88,0,1,0,1.689.495,4.774,4.774,0,0,1,4.589-3.6c2.51,0,4.271,2.229,4.862,4.3a.88.88,0,0,0,1.7,0c.012-.043,1.234-4.3,4.863-4.3,2.754,0,4.83,2.286,4.83,5.319,0,3.914-3.826,6.736-10.436,12.435-4.028-3.459-7.227-5.894-9.046-8.275a.88.88,0,1,0-1.4,1.068C163.682,15.491,167.142,18.063,171.5,21.841Zm0,0" transform="translate(-144.164 0)" fill="#fff"/>
      <path id="Tracé_363" data-name="Tracé 363" d="M159.88,88.6a.88.88,0,1,0,.88.88A.88.88,0,0,0,159.88,88.6Zm0,0" transform="translate(-144.457 -80.039)" fill="#fff"/>
    </g>
  </g>
</svg>
