<svg xmlns="http://www.w3.org/2000/svg" width="80.774" height="55" viewBox="0 0 80.774 55">
  <path id="delivery-truck" d="M66.037,658.725a7.463,7.463,0,0,0-5.263,2.168,7.293,7.293,0,0,0,0,10.448,7.492,7.492,0,0,0,5.263,2.168,7.393,7.393,0,0,0,0-14.785Zm0,11.5a4.108,4.108,0,1,1,0-8.214,4.107,4.107,0,0,1,0,8.214ZM67.945,634.1a1.6,1.6,0,0,0-1.1-.427H58.405a1.649,1.649,0,0,0-1.645,1.643v13.471a1.649,1.649,0,0,0,1.645,1.643H71.794a1.649,1.649,0,0,0,1.645-1.643v-9.019a1.643,1.643,0,0,0-.543-1.216Zm2.2,13.044H60.05v-10.2H66.2l3.947,3.548ZM25.872,658.725a7.463,7.463,0,0,0-5.263,2.168,7.293,7.293,0,0,0,0,10.448,7.492,7.492,0,0,0,5.263,2.168,7.393,7.393,0,0,0,0-14.785Zm0,11.5a4.108,4.108,0,1,1,0-8.214,4.107,4.107,0,0,1,0,8.214ZM14.9,660.746H11.6v-4.37a1.645,1.645,0,0,0-3.29,0v6.013a1.649,1.649,0,0,0,1.645,1.643H14.9a1.643,1.643,0,1,0,0-3.286Zm8.339-8.953A1.649,1.649,0,0,0,21.6,650.15H1.645a1.643,1.643,0,1,0,0,3.286H21.6A1.638,1.638,0,0,0,23.24,651.793Zm-18.257-5.93,19.951.115a1.66,1.66,0,0,0,1.661-1.626,1.628,1.628,0,0,0-1.628-1.659l-19.951-.115H5a1.643,1.643,0,0,0-.016,3.286ZM8.339,638.4H28.29a1.643,1.643,0,1,0,0-3.286H8.339a1.643,1.643,0,1,0,0,3.286Zm71.827-2.218h0l-11.776-9.742a1.622,1.622,0,0,0-1.053-.378H53.488v-5.914a1.649,1.649,0,0,0-1.645-1.643H9.951a1.649,1.649,0,0,0-1.645,1.643v12.025a1.645,1.645,0,0,0,3.29,0V621.8H50.215v38.95H36.728a1.643,1.643,0,1,0,0,3.286H56.81a1.643,1.643,0,1,0,0-3.286H53.5V629.352H66.761l10.724,8.871-.115,22.49H75.659a1.643,1.643,0,1,0,0,3.286H79a1.635,1.635,0,0,0,1.645-1.626l.132-24.9A1.734,1.734,0,0,0,80.166,636.186Z" transform="translate(0 -618.51)" fill="#fff"/>
</svg>
