<svg id="lock" xmlns="http://www.w3.org/2000/svg" width="39.267" height="55" viewBox="0 0 39.267 55">
  <g id="Groupe_39" data-name="Groupe 39" transform="translate(0 22.663)">
    <g id="Groupe_38" data-name="Groupe 38" transform="translate(0)">
      <path id="Tracé_62" data-name="Tracé 62" d="M108.159,213.333H80.441a5.781,5.781,0,0,0-5.774,5.774V239.9a5.781,5.781,0,0,0,5.774,5.775h27.718a5.781,5.781,0,0,0,5.775-5.775V219.108A5.781,5.781,0,0,0,108.159,213.333Zm3.465,26.563a3.469,3.469,0,0,1-3.465,3.465H80.441a3.469,3.469,0,0,1-3.465-3.465V219.108a3.469,3.469,0,0,1,3.465-3.465h27.718a3.469,3.469,0,0,1,3.465,3.465Z" transform="translate(-74.667 -213.333)" fill="#fff"/>
    </g>
  </g>
  <g id="Groupe_41" data-name="Groupe 41" transform="translate(4.62)">
    <g id="Groupe_40" data-name="Groupe 40" transform="translate(0)">
      <path id="Tracé_63" data-name="Tracé 63" d="M132.347,0a15.031,15.031,0,0,0-15.014,15.014v9.239a1.155,1.155,0,0,0,1.155,1.155h27.718a1.155,1.155,0,0,0,1.155-1.155V15.014A15.031,15.031,0,0,0,132.347,0Zm12.7,23.1H119.643V15.014a12.7,12.7,0,0,1,25.408,0Z" transform="translate(-117.333)" fill="#fff"/>
    </g>
  </g>
  <g id="Groupe_43" data-name="Groupe 43" transform="translate(18.478 38.831)">
    <g id="Groupe_42" data-name="Groupe 42" transform="translate(0)">
      <path id="Tracé_64" data-name="Tracé 64" d="M246.488,362.667a1.155,1.155,0,0,0-1.155,1.155v6.929a1.155,1.155,0,1,0,2.31,0v-6.929A1.155,1.155,0,0,0,246.488,362.667Z" transform="translate(-245.333 -362.667)" fill="#fff"/>
    </g>
  </g>
  <g id="Groupe_45" data-name="Groupe 45" transform="translate(13.859 29.73)">
    <g id="Groupe_44" data-name="Groupe 44">
      <path id="Tracé_65" data-name="Tracé 65" d="M208.441,277.333a5.775,5.775,0,1,0,5.774,5.775A5.781,5.781,0,0,0,208.441,277.333Zm0,9.239a3.465,3.465,0,1,1,3.465-3.465A3.469,3.469,0,0,1,208.441,286.572Z" transform="translate(-202.667 -277.333)" fill="#fff"/>
    </g>
  </g>
</svg>
