<svg height="59.056" viewBox="0 0 72.648 59.056" width="72.648" xmlns="http://www.w3.org/2000/svg"><path d="m112.892 0h-52.05a.942.942 0 0 0 -.725.321.907.907 0 0 0 .261 1.38l12.14 6.537a0 0 0 0 1 0 0l2.827 18.843a.914.914 0 0 0 1.418.6l11.856-8.424 8.4 4.621a.913.913 0 0 0 1.178-.276l8.834-12.7a.9.9 0 1 0 -1.485-1.033l-8.357 12.031a0 0 0 0 1 -.006 0l-16.756-9.211a0 0 0 0 1 0-.008l30.16-10.053a0 0 0 0 1 0 .007l-2.5 3.594a.932.932 0 0 0 .183 1.28.9.9 0 0 0 1.278-.213l4.087-5.875a.92.92 0 0 0 .068-.118.913.913 0 0 0 -.811-1.303zm-26.035 18.29a0 0 0 0 1 0 .007l-9.437 6.703a0 0 0 0 1 -.007 0l1.478-11.083a0 0 0 0 1 .007 0zm14.481-14.49-23.454 7.822a.915.915 0 0 0 -.61.738l-1.082 8.111a0 0 0 0 1 -.009 0l-1.809-12.071a0 0 0 0 1 0 0l26.959-4.6a0 0 0 0 1 .005 0zm.838-1.987-28.676 4.9-9.092-4.9a0 0 0 0 1 0-.008h37.765a0 0 0 0 1 .003.012z" transform="matrix(.97029573 .2419219 -.2419219 .97029573 -37.77226308102 -14.4918831306)"/><path d="m127.331 300.759c-.254 0-.512.014-.768.031a.9.9 0 0 0 .057 1.807h.059c.226-.015.454-.024.678-.027a.9.9 0 1 0 -.027-1.809z" transform="matrix(.97029573 .2419219 -.2419219 .97029573 -29.94273852204 -285.20302912092)"/><path d="m157.475 303.171a12.613 12.613 0 0 0 -1.464-.378.9.9 0 0 0 -.348 1.775 10.833 10.833 0 0 1 1.253.323.9.9 0 1 0 .558-1.721z" transform="matrix(.97029573 .2419219 -.2419219 .97029573 -54.44992741054 -293.14269687167)"/><path d="m83.708 359.913a8.705 8.705 0 0 1 -.121-1.264.9.9 0 0 0 -1.808.042 10.514 10.514 0 0 0 .147 1.528.9.9 0 0 0 1.783-.306z" transform="matrix(.97029573 .2419219 -.2419219 .97029573 19.69254763132 -324.5087135187)"/><path d="m116.391 417.273a6.169 6.169 0 0 1 -1.105-.521.9.9 0 1 0 -.929 1.552 8 8 0 0 0 1.43.674.9.9 0 0 0 .6-1.7z" transform="matrix(.97029573 .2419219 -.2419219 .97029573 4.78585312526 -381.58539089625)"/><path d="m124.667 269.218a.9.9 0 0 0 -1.271-.146c-.384.3-.76.628-1.118.962a.9.9 0 1 0 1.233 1.323c.323-.3.663-.594 1.01-.869a.9.9 0 0 0 .146-1.27z" transform="matrix(.97029573 .2419219 -.2419219 .97029573 -33.54583850887 -257.19782346297)"/><path d="m92.7 392.9a7.3 7.3 0 0 1 -.675-1.049.9.9 0 1 0 -1.6.846 9.106 9.106 0 0 0 .842 1.309.9.9 0 1 0 1.433-1.106z" transform="matrix(.97029573 .2419219 -.2419219 .97029573 19.55319619387 -355.01354985465)"/><path d="m86.174 323.73a.9.9 0 0 0 -1.186.478 11.35 11.35 0 0 0 -.511 1.441.9.9 0 1 0 1.745.473 9.41 9.41 0 0 1 .429-1.206.9.9 0 0 0 -.477-1.186z" transform="matrix(.97029573 .2419219 -.2419219 .97029573 10.15809300494 -295.96544980464)"/><path d="m101.723 293.861a.9.9 0 0 0 -1.269.157c-.3.388-.592.792-.861 1.2a.9.9 0 0 0 1.511.994c.242-.368.5-.732.776-1.082a.9.9 0 0 0 -.157-1.269z" transform="matrix(.97029573 .2419219 -.2419219 .97029573 -9.02661695251 -273.56217821347)"/><path d="m189.733 317.1a8.257 8.257 0 0 0 -1.2-1.022.9.9 0 1 0 -1.04 1.48 6.433 6.433 0 0 1 .936.8.9.9 0 0 0 1.3-1.255z" transform="matrix(.97029573 .2419219 -.2419219 .97029573 -79.11728635416 -311.20376208088)"/><path d="m150.569 424.087a.9.9 0 0 0 -1.074-.695 7.955 7.955 0 0 1 -1.175.159h-.07a.9.9 0 0 0 .044 1.808h.046l.092-.005a9.733 9.733 0 0 0 1.442-.2.9.9 0 0 0 .695-1.067z" transform="matrix(.97029573 .2419219 -.2419219 .97029573 -22.34821432429 -394.46942699076)"/><path d="m209.946 345.5a7.194 7.194 0 0 0 -.3-1.575.9.9 0 0 0 -1.727.538 5.373 5.373 0 0 1 .222 1.178.9.9 0 1 0 1.8-.141z" transform="matrix(.97029573 .2419219 -.2419219 .97029573 -91.02104797259 -338.98475711126)"/><path d="m204.925 377.83a.9.9 0 0 0 -1.124.611 7.377 7.377 0 0 1 -.454 1.163.9.9 0 0 0 1.623.8 9.2 9.2 0 0 0 .566-1.449.9.9 0 0 0 -.611-1.125z" transform="matrix(.97029573 .2419219 -.2419219 .97029573 -79.72913345082 -367.45467408004)"/><path d="m153.135 251.03a.9.9 0 0 0 -1.2-.434c-.444.208-.884.436-1.307.675a.9.9 0 0 0 .446 1.692.9.9 0 0 0 .444-.117c.384-.217.783-.423 1.186-.613a.9.9 0 0 0 .431-1.203z" transform="matrix(.97029573 .2419219 -.2419219 .97029573 -61.50310839332 -247.51775994059)"/><path d="m183.058 407.659a.9.9 0 0 0 -1.279-.033 6.65 6.65 0 0 1 -.969.763.9.9 0 1 0 .981 1.52 8.464 8.464 0 0 0 1.234-.971.9.9 0 0 0 .033-1.279z" transform="matrix(.97029573 .2419219 -.2419219 .97029573 -53.92337976021 -387.84229680999)"/><path d="m184.849 241.148a.9.9 0 0 0 -1.107-.64c-.244.065-.488.135-.726.207a.9.9 0 0 0 .527 1.73c.218-.066.442-.13.665-.19a.9.9 0 0 0 .641-1.107z" transform="matrix(.97029573 .2419219 -.2419219 .97029573 -91.13067029654 -245.80854494221)"/><path d="m19.192 492.729c-.1-.2-.207-.411-.3-.617a.9.9 0 0 0 -1.639.764c.106.228.219.458.335.682a.9.9 0 0 0 1.607-.829z" transform="matrix(.97029573 .2419219 -.2419219 .97029573 103.32150432296 -424.98254019783)"/><path d="m8.762 461.556c-.116-.41-.217-.829-.3-1.243a.9.9 0 1 0 -1.775.347c.09.464.2.932.333 1.391a.9.9 0 0 0 1.74-.494z" transform="matrix(.97029573 .2419219 -.2419219 .97029573 105.46481059873 -395.43019640885)"/><path d="m5.223 425.981a.906.906 0 0 0 -.96.845c-.023.355-.034.714-.034 1.069a1.343 1.343 0 0 0 .2.909.9.9 0 0 0 1.43-.025 1.351 1.351 0 0 0 .176-.884c0-.316.01-.637.03-.953a.9.9 0 0 0 -.842-.961z" transform="matrix(.97029573 .2419219 -.2419219 .97029573 100.3987647585 -366.22836446695)"/><path d="m9.355 392.945a.9.9 0 0 0 -1.138.583c-.146.452-.275.915-.383 1.375a.9.9 0 0 0 1.761.414c.1-.413.213-.828.344-1.233a.9.9 0 0 0 -.584-1.139z" transform="matrix(.97029573 .2419219 -.2419219 .97029573 90.30410198043 -338.75748167424)"/><path d="m40.738 336.341a.9.9 0 0 0 -1.279-.03q-.139.132-.276.269c-.244.244-.486.5-.718.768a.9.9 0 1 0 1.362 1.191c.205-.235.419-.464.635-.68q.121-.121.245-.239a.9.9 0 0 0 .031-1.279z" transform="matrix(.97029573 .2419219 -.2419219 .97029573 52.23100777497 -296.71845798531)"/><path d="m21.463 362.443a.9.9 0 0 0 -1.244.3c-.248.4-.482.821-.7 1.244a.9.9 0 1 0 1.611.822c.194-.38.4-.756.627-1.118a.9.9 0 0 0 -.294-1.248z" transform="matrix(.97029573 .2419219 -.2419219 .97029573 73.88144247375 -315.11829771034)"/><path d="m65.895 319.254a.9.9 0 0 0 -1.24-.313c-.218.13-.436.268-.648.408a.9.9 0 1 0 1 1.507c.188-.125.382-.247.576-.363a.9.9 0 0 0 .312-1.239z" transform="matrix(.97029573 .2419219 -.2419219 .97029573 26.91666570286 -287.39562358451)"/></svg>